<svg xmlns="http://www.w3.org/2000/svg" width="28.06" height="19.642" viewBox="0 0 28.06 19.642">
  <path id="dumbbell-solid" d="M4.209,33.4a1.4,1.4,0,0,1,1.4-1.4h1.4a1.4,1.4,0,0,1,1.4,1.4V50.239a1.4,1.4,0,0,1-1.4,1.4h-1.4a1.4,1.4,0,0,1-1.4-1.4V47.433h-1.4a1.4,1.4,0,0,1-1.4-1.4V43.224a1.4,1.4,0,0,1,0-2.806V37.612a1.4,1.4,0,0,1,1.4-1.4h1.4Zm19.642,0v2.806h1.4a1.4,1.4,0,0,1,1.4,1.4v2.806a1.4,1.4,0,1,1,0,2.806V46.03a1.4,1.4,0,0,1-1.4,1.4h-1.4v2.806a1.4,1.4,0,0,1-1.4,1.4h-1.4a1.4,1.4,0,0,1-1.4-1.4V33.4a1.4,1.4,0,0,1,1.4-1.4h1.4A1.4,1.4,0,0,1,23.851,33.4Zm-5.612,7.015v2.806H9.821V40.418Z" transform="translate(0 -32)" fill="#026b8b"/>
</svg>
