<svg xmlns="http://www.w3.org/2000/svg" width="24.627" height="19.702" viewBox="0 0 24.627 19.702">
  <path id="hospital-solid" d="M7.388,1.847A1.847,1.847,0,0,1,9.235,0h6.157a1.847,1.847,0,0,1,1.847,1.847V19.7H14.16V16.623a1.847,1.847,0,1,0-3.694,0V19.7H7.388ZM1.847,3.694h4.31V19.7H1.847A1.847,1.847,0,0,1,0,17.854V12.313H3.078a.616.616,0,0,0,0-1.231H0V8.619H3.078a.616.616,0,0,0,0-1.231H0V5.541A1.847,1.847,0,0,1,1.847,3.694Zm20.933,0a1.847,1.847,0,0,1,1.847,1.847V7.388H21.549a.616.616,0,0,0,0,1.231h3.078v2.463H21.549a.616.616,0,0,0,0,1.231h3.078v5.541A1.847,1.847,0,0,1,22.78,19.7H18.47V3.694ZM12.006,2.463a.617.617,0,0,0-.616.616V4h-.924a.617.617,0,0,0-.616.616v.616a.617.617,0,0,0,.616.616h.924v.924a.617.617,0,0,0,.616.616h.616a.617.617,0,0,0,.616-.616V5.849h.924a.617.617,0,0,0,.616-.616V4.618A.617.617,0,0,0,14.16,4h-.924V3.078a.617.617,0,0,0-.616-.616Z" fill="#026b8b"/>
</svg>
