<svg xmlns="http://www.w3.org/2000/svg" width="28.123" height="25" viewBox="0 0 28.123 25">
  <path id="house-solid" d="M28.115,12.476a1.578,1.578,0,0,1-1.562,1.567H24.99l.034,7.822a3.583,3.583,0,0,1-.024.4v.786A1.953,1.953,0,0,1,23.047,25h-.781c-.054,0-.107,0-.161,0s-.137,0-.205,0H19.141a1.953,1.953,0,0,1-1.953-1.953v-4.3a1.561,1.561,0,0,0-1.562-1.562H12.5a1.561,1.561,0,0,0-1.562,1.563v4.3A1.953,1.953,0,0,1,8.984,25H6.255c-.073,0-.146,0-.22-.01s-.117.01-.176.01H5.078a1.953,1.953,0,0,1-1.953-1.953V17.578a1.279,1.279,0,0,1,0-.137v-3.4H1.563A1.544,1.544,0,0,1,0,12.476,1.587,1.587,0,0,1,.488,11.3L13.008.391A1.409,1.409,0,0,1,14.082,0a1.622,1.622,0,0,1,1.025.342L27.578,11.3A1.338,1.338,0,0,1,28.115,12.476Z" transform="translate(0 0)" fill="#026b8b"/>
</svg>
