<svg xmlns="http://www.w3.org/2000/svg" width="19.704" height="19.702" viewBox="0 0 19.704 19.702">
  <path id="landmark-flag-solid" d="M10.48,0h3.078a.617.617,0,0,1,.616.616V3.078a.617.617,0,0,1-.616.616H10.48V4.925h7.388a1.231,1.231,0,1,1,0,2.463H1.86a1.231,1.231,0,0,1,0-2.463H9.248V.616A.617.617,0,0,1,9.864,0Zm-8,8.619H4.939v7.388H6.478V8.619H8.941v7.388h1.847V8.619H13.25v7.388H14.79V8.619h2.463v7.554a.67.67,0,0,1,.069.042l1.847,1.231a1.23,1.23,0,0,1-.685,2.255H1.245a1.23,1.23,0,0,1-.681-2.255l1.847-1.231c.023-.015.046-.027.069-.042V8.619Z" transform="translate(-0.014)" fill="#026b8b"/>
</svg>
