<svg xmlns="http://www.w3.org/2000/svg" width="28.644" height="25" viewBox="0 0 28.644 25">
  <path id="building-user-solid" d="M2.148,0A2.253,2.253,0,0,0,0,2.344V22.656A2.253,2.253,0,0,0,2.148,25h4.3V21.094A2.253,2.253,0,0,1,8.593,18.75a2.253,2.253,0,0,1,2.148,2.344V25h4.024a3.469,3.469,0,0,1-.443-1.714,6.214,6.214,0,0,1,2.864-5.332V2.344A2.253,2.253,0,0,0,15.038,0Zm.716,11.719a.753.753,0,0,1,.716-.781H5.013a.753.753,0,0,1,.716.781v1.563a.753.753,0,0,1-.716.781H3.58a.753.753,0,0,1-.716-.781Zm5.013-.781H9.309a.753.753,0,0,1,.716.781v1.563a.753.753,0,0,1-.716.781H7.877a.753.753,0,0,1-.716-.781V11.719A.753.753,0,0,1,7.877,10.937Zm3.58.781a.753.753,0,0,1,.716-.781h1.432a.753.753,0,0,1,.716.781v1.563a.753.753,0,0,1-.716.781H12.173a.753.753,0,0,1-.716-.781ZM3.58,4.687H5.013a.753.753,0,0,1,.716.781V7.031a.753.753,0,0,1-.716.781H3.58a.753.753,0,0,1-.716-.781V5.469A.753.753,0,0,1,3.58,4.687Zm3.58.781a.753.753,0,0,1,.716-.781H9.309a.753.753,0,0,1,.716.781V7.031a.753.753,0,0,1-.716.781H7.877a.753.753,0,0,1-.716-.781Zm5.013-.781h1.432a.753.753,0,0,1,.716.781V7.031a.753.753,0,0,1-.716.781H12.173a.753.753,0,0,1-.716-.781V5.469A.753.753,0,0,1,12.173,4.687Zm13.606,8.594A3.754,3.754,0,0,0,22.2,9.375a3.754,3.754,0,0,0-3.58,3.906,3.754,3.754,0,0,0,3.58,3.906A3.754,3.754,0,0,0,25.779,13.281ZM15.754,23.3A1.636,1.636,0,0,0,17.316,25h9.766a1.636,1.636,0,0,0,1.562-1.7,4.37,4.37,0,0,0-4.167-4.546H19.921A4.37,4.37,0,0,0,15.754,23.3Z" transform="translate(0 0)" fill="#026b8b"/>
</svg>
