<svg xmlns="http://www.w3.org/2000/svg" width="26.567" height="25" viewBox="0 0 26.567 25">
  <path id="store-solid" d="M41.929,5.068,39.132.64A1.383,1.383,0,0,0,37.965,0H20.543a1.383,1.383,0,0,0-1.167.64l-2.8,4.429a3.806,3.806,0,0,0,2.534,5.83,4.8,4.8,0,0,0,.591.039,4.281,4.281,0,0,0,3.184-1.416,4.287,4.287,0,0,0,6.367,0,4.287,4.287,0,0,0,6.367,0A4.289,4.289,0,0,0,38.8,10.938a4.739,4.739,0,0,0,.591-.039,3.8,3.8,0,0,0,2.544-5.83Zm-2.339,7.378h0a6.034,6.034,0,0,1-.791.054,5.9,5.9,0,0,1-1.729-.259V18.75H21.441V12.236A5.829,5.829,0,0,1,19.7,12.5a6.108,6.108,0,0,1-.8-.054h0a5.648,5.648,0,0,1-.586-.112v9.541A3.128,3.128,0,0,0,21.441,25H37.066a3.128,3.128,0,0,0,3.125-3.125V12.334a4.667,4.667,0,0,1-.6.112Z" transform="translate(-15.971 0)" fill="#026b8b"/>
</svg>
