<svg xmlns="http://www.w3.org/2000/svg" width="21.875" height="25" viewBox="0 0 21.875 25">
  <path id="utensils-solid" d="M20.312,0c-.781,0-6.25,1.563-6.25,8.594v5.469a3.128,3.128,0,0,0,3.125,3.125H18.75v6.25a1.562,1.562,0,0,0,3.125,0V1.563A1.561,1.561,0,0,0,20.312,0ZM3.125.781A.781.781,0,0,0,1.582.61L.1,7.266a4.3,4.3,0,0,0,3.8,5.215V23.438a1.562,1.562,0,1,0,3.125,0V12.48a4.3,4.3,0,0,0,3.8-5.215L9.355.61A.781.781,0,0,0,7.812.781V7.334a.479.479,0,0,1-.957.039L6.245.713a.779.779,0,0,0-1.553,0l-.605,6.66a.479.479,0,0,1-.957-.039V.781ZM5.483,8.2H5.454l.015-.034Z" fill="#026b8b"/>
</svg>
